<svg id="Layer_1" data-name="Layer 1" xmlns="http://www.w3.org/2000/svg" viewBox="0 0 169.85 169.21"><defs><style>.cls-1{fill:#397aad;}.cls-2{fill:#fff;}.cls-3{fill:#286c99;}.cls-4{fill:#ffd84b;}.cls-5{fill:#edc43e;}</style></defs><title>Logo_PhMI</title><path class="cls-1" d="M65.6,29.11l2.09,3.76,4.8,1.88s.21-7.94,8.14-8.56a14.86,14.86,0,0,1,6.57.84C90,28.27,94,30.78,96.92,29.11a3.58,3.58,0,0,1,3.34-1.88c2.51,0,16.29-1.88,17.12-5,0,0,2.71,8.77-4,13.78,0,0-3.12,14.54-6.88,14.54l-3.77.28S99.85,55.42,93,54.58c0,0-15.56-2.2-22.34,1.25,0,0-1.67-6.68-5-6.06l-5,1.88s-1.88-6.47,7.31-6.47c0,0,8.14,1.88,8.56-.42a4.23,4.23,0,0,0-4.59-4.18s-7.73.21-10-7.1A5.35,5.35,0,0,1,65.6,29.11Z" transform="translate(-2.85 -2.83)"/><path class="cls-2" d="M76.77,34.54l13.36-1.88s-2.71-.42-3.86-1.46C86.27,31.2,83.45,27.75,76.77,34.54Z" transform="translate(-2.85 -2.83)"/><path class="cls-3" d="M76.79,34.53l13.32-2.06v.38A14,14,0,0,1,88,32.36a5.68,5.68,0,0,1-1.93-1l0,0a3,3,0,0,0-2.33-.76,7.25,7.25,0,0,0-2.54.74,17,17,0,0,0-2.3,1.46C78.16,33.37,77.53,33.88,76.79,34.53Zm0,0c.31-.31.61-.66.95-1s.69-.64,1-1A13.52,13.52,0,0,1,81,30.94a6.7,6.7,0,0,1,2.71-.85,3.4,3.4,0,0,1,2.74,1l0,0a5.28,5.28,0,0,0,1.74.93,12.9,12.9,0,0,0,2,.52l1.23.22-1.23.16Z" transform="translate(-2.85 -2.83)"/><path class="cls-3" d="M100.8,39.84a14.29,14.29,0,0,1,2,2.68A11.34,11.34,0,0,1,104,45.65a6.71,6.71,0,0,1-.12,3.39,6.36,6.36,0,0,1-1.9,2.77l0,0a9,9,0,0,0,1.45-2.88,8,8,0,0,0,.21-3.17,11,11,0,0,0-1-3.08,14.15,14.15,0,0,0-1.79-2.76Z" transform="translate(-2.85 -2.83)"/><path class="cls-2" d="M116.64,23.22s-2.49,3.06-9.38,5.47c0,0-5.33,1.25-5.85,2.82a25.59,25.59,0,0,0-.63,5.12s-6.06-1-3.86-7.52a3.58,3.58,0,0,1,3.34-1.88S111.25,26.68,116.64,23.22Z" transform="translate(-2.85 -2.83)"/><path class="cls-3" d="M116.66,23.21a11.08,11.08,0,0,1-2.05,1.85,23.36,23.36,0,0,1-2.31,1.48c-.79.46-1.62.85-2.45,1.23s-1.69.71-2.55,1h0a27.1,27.1,0,0,0-2.8.87A8.59,8.59,0,0,0,101.94,31a1.64,1.64,0,0,0-.38.53c-.07.23-.13.46-.18.7-.1.47-.16,1-.22,1.45-.11,1-.17,2-.2,2.93v.21l-.2,0a6.75,6.75,0,0,1-2.32-1A4.82,4.82,0,0,1,96.75,34a5.16,5.16,0,0,1-.51-2.47,10.47,10.47,0,0,1,.14-1.25L96.69,29h0a3.52,3.52,0,0,1,.64-.88,3.67,3.67,0,0,1,.86-.65,4.1,4.1,0,0,1,2.07-.49h0c1.4-.08,2.81-.24,4.21-.41s2.8-.38,4.18-.66a35.23,35.23,0,0,0,4.1-1A22,22,0,0,0,116.66,23.21Zm0,0a16.46,16.46,0,0,1-3.8,1.87,35.54,35.54,0,0,1-4.11,1.16,52.33,52.33,0,0,1-8.45,1.2h0a3.6,3.6,0,0,0-1.82.43,3.34,3.34,0,0,0-1.3,1.3v0l-.32,1.15a10.11,10.11,0,0,0-.14,1.17,4.74,4.74,0,0,0,.43,2.27,5.32,5.32,0,0,0,3.7,2.67l-.21.17c0-1,.11-2,.23-3,.06-.49.13-1,.24-1.47.05-.24.12-.49.19-.73a1.9,1.9,0,0,1,.47-.65,8.79,8.79,0,0,1,2.65-1.38,26.59,26.59,0,0,1,2.84-.84h0c.86-.3,1.71-.62,2.55-1s1.66-.75,2.46-1.19A23.25,23.25,0,0,0,114.56,25,16.11,16.11,0,0,0,116.62,23.24Z" transform="translate(-2.85 -2.83)"/><path class="cls-1" d="M59.54,47.63s2.5-4.69,6.13-4.71c0,0-4.13-1.45-6.49.53,0,0-1.06.74-.71-.73a5.23,5.23,0,0,1,4.47-1.25,3.73,3.73,0,0,0-1.33-3.53s.81,2.82-6.21,4.81c0,0-1-.48-.07-.83,0,0,7.16-1.44,5.52-5.32,0,0-.18-2.13-3-3.48,0,0,.25-3.66-.89-5.06,0,0,8.27,1.82,11.63-1.44,0,0-.64-4.89-8.15-7.9a7.16,7.16,0,0,0-5.57-5.41s-1.2,1.22.29,3.43c0,0,1,1.41-1.49,0,0,0-1.09.37.38,1.18a7.42,7.42,0,0,0,3.26,1,1.21,1.21,0,0,1,1.07.47c.32.53,1.73,4,4,4.61,0,0-1,2.23-5.21-1,0,0-3.09-1.23-5.2-.87a4.3,4.3,0,0,1-5,1.91l-3.41-.65s-.69-.41-.05-.65l3,.68s4.62.64,4.77-2.08a6.56,6.56,0,0,0-1-4.11,6.51,6.51,0,0,1-.29-1.19c0-.46-.13-3.81-3.61-3,0,0-.69-.41-.15-.64a3.29,3.29,0,0,1,3,.49s-1.17-2.79-5.68-2.13c0,0-5.3-.86-5.18,5,0,0-2.07.92-.17,3.56a1.57,1.57,0,0,1,.39,1.27s-.45,1.34,2.34,2.32a2.36,2.36,0,0,1,1.81,2.65c0-.47-5.29,2.5-5.45,10.63,0,0,.2,7.91-4.73,10.29a2.92,2.92,0,0,0-3,.44s-.72.36-.48.89c0,0,.26.5,1.54-.51a2.06,2.06,0,0,1,1.11-.09s-2.72,1-3,2.87c0,0,4.06,2.74,6.64-2.05,0,0,10.28-3.26,7.27-14.51,0,0,.35-1.43.64-.15l.5,2.57,4,3.49A4.3,4.3,0,0,1,49,41.9S48.93,48,59.54,47.63Z" transform="translate(-2.85 -2.83)"/><path class="cls-1" d="M104.15,8.72A2.59,2.59,0,0,0,102,12.77a9.34,9.34,0,0,1-.82.66c-.68.45-2.17,1.19-3.26.58a2.55,2.55,0,0,1-1.24-2.91.91.91,0,0,0,.14,0,1.74,1.74,0,1,0-.89-.29c-.4.76-1.78,2.95-4.38,2.63-3-.37-3.93-3.63-4.08-4.9A2.87,2.87,0,0,0,90,5.73a2.9,2.9,0,0,0-5.81,0,2.87,2.87,0,0,0,2.56,2.83c-.15,1.28-1.06,4.53-4.08,4.9-2.59.32-4-1.86-4.38-2.63a1.64,1.64,0,0,0,.78-1.38,1.66,1.66,0,1,0-1.66,1.67,1,1,0,0,0,.15,0A2.56,2.56,0,0,1,76.32,14c-1.1.61-2.59-.13-3.26-.58a8.17,8.17,0,0,1-.82-.66,2.6,2.6,0,0,0,.47-1.41A2.65,2.65,0,1,0,70,14a2.58,2.58,0,0,0,1.52-.54l2.6,3.12a16.27,16.27,0,0,1,2.16,4L76.51,22c-1.09.37-1.75.8-1.75,1.27a63.33,63.33,0,0,1,24.68,0c0-.47-.66-.9-1.75-1.27l.17-1.27a15,15,0,0,1,2.32-4.26l2.45-2.95a2.59,2.59,0,0,0,1.52.54,2.65,2.65,0,1,0,0-5.29Z" transform="translate(-2.85 -2.83)"/><path class="cls-1" d="M106.74,50.53s26.18-2.7,28.17,3.45c0,0,2.43,7.24-5.73,7.55h-94s-30.26-2-32.33,25.71a45.76,45.76,0,0,0,6.57,21.61s2.25-14.76,19.82-19c0,0-.23-3.83,10.46-3.79h98S169.36,86.9,167,54c0,0-1.75-21.31-25-21.31H112.16Z" transform="translate(-2.85 -2.83)"/><path class="cls-4" d="M109.95,145.77,107.86,142l-4.8-1.88s-.21,7.94-8.14,8.56a14.86,14.86,0,0,1-6.57-.84c-2.82-1.25-6.79-3.76-9.71-2.09a3.58,3.58,0,0,1-3.34,1.88c-2.51,0-16.29,1.88-17.12,5,0,0-2.71-8.77,4-13.78,0,0,3.12-14.54,6.88-14.54l3.77-.28s2.92-4.59,9.81-3.76c0,0,15.56,2.2,22.34-1.25,0,0,1.67,6.68,5,6.06l5-1.88s1.88,6.47-7.31,6.47c0,0-8.14-1.88-8.56.42a4.23,4.23,0,0,0,4.59,4.18s7.73-.21,10,7.1A5.35,5.35,0,0,1,109.95,145.77Z" transform="translate(-2.85 -2.83)"/><path class="cls-2" d="M98.78,140.34l-13.36,1.88s2.71.42,3.86,1.46C89.27,143.68,92.09,147.13,98.78,140.34Z" transform="translate(-2.85 -2.83)"/><path class="cls-5" d="M98.75,140.35l-13.32,2.06V142a14,14,0,0,1,2.06.49,5.68,5.68,0,0,1,1.93,1l0,0a3,3,0,0,0,2.33.76,7.25,7.25,0,0,0,2.54-.74,17,17,0,0,0,2.3-1.46C97.38,141.5,98,141,98.75,140.35Zm0,0c-.31.31-.61.66-.95,1s-.69.64-1,1a13.52,13.52,0,0,1-2.28,1.62,6.7,6.7,0,0,1-2.71.85,3.4,3.4,0,0,1-2.74-1l0,0a5.28,5.28,0,0,0-1.74-.93,12.9,12.9,0,0,0-2-.52l-1.23-.22,1.23-.16Z" transform="translate(-2.85 -2.83)"/><path class="cls-5" d="M74.74,135a14.29,14.29,0,0,1-2-2.68,11.34,11.34,0,0,1-1.22-3.13,6.71,6.71,0,0,1,.12-3.39,6.36,6.36,0,0,1,1.9-2.77l0,0A9,9,0,0,0,72.15,126a8,8,0,0,0-.21,3.17,11,11,0,0,0,1,3.08A14.15,14.15,0,0,0,74.78,135Z" transform="translate(-2.85 -2.83)"/><path class="cls-2" d="M58.9,151.65s2.49-3.06,9.38-5.47c0,0,5.33-1.25,5.85-2.82a25.59,25.59,0,0,0,.63-5.12s6.06,1,3.86,7.52a3.58,3.58,0,0,1-3.34,1.88S64.29,148.2,58.9,151.65Z" transform="translate(-2.85 -2.83)"/><path class="cls-5" d="M58.89,151.67a11.08,11.08,0,0,1,2.05-1.85,23.36,23.36,0,0,1,2.31-1.48c.79-.46,1.62-.85,2.45-1.23s1.69-.71,2.55-1h0a27.11,27.11,0,0,0,2.8-.87,8.59,8.59,0,0,0,2.54-1.35,1.64,1.64,0,0,0,.38-.53q.1-.34.18-.7c.1-.47.16-1,.22-1.45.11-1,.17-2,.2-2.93V138l.2,0a6.75,6.75,0,0,1,2.32,1,4.82,4.82,0,0,1,1.69,1.87,5.16,5.16,0,0,1,.51,2.47,10.47,10.47,0,0,1-.14,1.25l-.32,1.21h0a3.52,3.52,0,0,1-.64.88,3.67,3.67,0,0,1-.86.65,4.1,4.1,0,0,1-2.07.49h0c-1.4.08-2.81.24-4.21.41s-2.8.38-4.18.66a35.23,35.23,0,0,0-4.1,1A22,22,0,0,0,58.89,151.67Zm0,0a16.46,16.46,0,0,1,3.8-1.87,35.54,35.54,0,0,1,4.11-1.16,52.33,52.33,0,0,1,8.45-1.2h0a3.6,3.6,0,0,0,1.82-.43,3.34,3.34,0,0,0,1.3-1.3v0l.32-1.15a10.11,10.11,0,0,0,.14-1.17,4.74,4.74,0,0,0-.43-2.27,5.32,5.32,0,0,0-3.7-2.67l.21-.17c0,1-.11,2-.23,3-.06.49-.13,1-.24,1.47-.05.24-.12.49-.19.73a1.9,1.9,0,0,1-.47.65,8.79,8.79,0,0,1-2.65,1.38,26.59,26.59,0,0,1-2.84.84h0c-.86.3-1.71.62-2.55,1s-1.66.75-2.46,1.19A23.25,23.25,0,0,0,61,149.89,16.11,16.11,0,0,0,58.92,151.64Z" transform="translate(-2.85 -2.83)"/><path class="cls-4" d="M116,127.24s-2.5,4.69-6.13,4.71c0,0,4.13,1.45,6.49-.53,0,0,1.06-.74.71.73a5.23,5.23,0,0,1-4.47,1.25,3.73,3.73,0,0,0,1.33,3.53s-.81-2.82,6.21-4.81c0,0,1,.48.07.83,0,0-7.16,1.44-5.52,5.32,0,0,.18,2.13,3,3.48,0,0-.25,3.66.89,5.06,0,0-8.27-1.82-11.63,1.44,0,0,.64,4.89,8.15,7.9a7.16,7.16,0,0,0,5.57,5.41s1.2-1.22-.29-3.43c0,0-1-1.41,1.49,0,0,0,1.09-.37-.38-1.18a7.42,7.42,0,0,0-3.26-1,1.21,1.21,0,0,1-1.07-.47c-.32-.53-1.73-4-4-4.61,0,0,1-2.23,5.21,1,0,0,3.09,1.23,5.2.87a4.3,4.3,0,0,1,5-1.91l3.41.65s.69.41.05.65l-3-.68s-4.62-.64-4.77,2.08a6.56,6.56,0,0,0,1,4.11,6.51,6.51,0,0,1,.29,1.19c0,.46.13,3.81,3.61,3,0,0,.69.41.15.64a3.29,3.29,0,0,1-3-.49s1.17,2.79,5.68,2.13c0,0,5.3.86,5.18-5,0,0,2.07-.92.17-3.56a1.57,1.57,0,0,1-.39-1.27s.45-1.34-2.34-2.32a2.36,2.36,0,0,1-1.81-2.65c0,.47,5.29-2.5,5.45-10.63,0,0-.2-7.91,4.73-10.29a2.92,2.92,0,0,0,3-.44s.72-.36.48-.89c0,0-.26-.5-1.54.51a2.06,2.06,0,0,1-1.11.09s2.72-1,3-2.87c0,0-4.06-2.74-6.64,2.05,0,0-10.28,3.26-7.27,14.51,0,0-.35,1.43-.64.15l-.5-2.57-4-3.49a4.3,4.3,0,0,1-1.13-2.33S126.62,126.91,116,127.24Z" transform="translate(-2.85 -2.83)"/><path class="cls-4" d="M71.4,166.16a2.59,2.59,0,0,0,2.18-4.06,9.34,9.34,0,0,1,.82-.66c.68-.45,2.17-1.19,3.26-.58a2.55,2.55,0,0,1,1.24,2.91.91.91,0,0,0-.14,0,1.74,1.74,0,1,0,.89.29c.4-.76,1.78-2.95,4.38-2.63,3,.37,3.93,3.63,4.08,4.9a2.87,2.87,0,0,0-2.55,2.83,2.9,2.9,0,0,0,5.81,0,2.87,2.87,0,0,0-2.56-2.83c.15-1.28,1.06-4.53,4.08-4.9,2.59-.32,4,1.86,4.38,2.63a1.64,1.64,0,0,0-.78,1.38,1.66,1.66,0,1,0,1.66-1.67,1,1,0,0,0-.15,0,2.56,2.56,0,0,1,1.24-2.91c1.1-.61,2.59.13,3.26.58a8.17,8.17,0,0,1,.82.66,2.6,2.6,0,0,0-.47,1.41,2.65,2.65,0,1,0,2.65-2.65,2.58,2.58,0,0,0-1.52.54l-2.6-3.12a16.27,16.27,0,0,1-2.16-4L99,152.92c1.09-.37,1.75-.8,1.75-1.27a63.33,63.33,0,0,1-24.68,0c0,.47.66.9,1.75,1.27l-.17,1.27a15,15,0,0,1-2.32,4.26l-2.45,2.95a2.59,2.59,0,0,0-1.52-.54,2.65,2.65,0,1,0,0,5.29Z" transform="translate(-2.85 -2.83)"/><path class="cls-4" d="M68.8,124.35S42.63,127,40.63,120.9c0,0-2.43-7.24,5.73-7.55h94s30.26,2,32.33-25.71a46.07,46.07,0,0,0-6.45-22.12s-2,14.72-19.95,19.51c0,0,.23,3.83-10.46,3.79h-98S6.19,88,8.56,120.9c0,0,1.75,21.31,25,21.31H63.38Z" transform="translate(-2.85 -2.83)"/></svg>