<?xml version="1.0" standalone="no"?>
<!DOCTYPE svg PUBLIC "-//W3C//DTD SVG 20010904//EN"
 "http://www.w3.org/TR/2001/REC-SVG-20010904/DTD/svg10.dtd">
<svg version="1.0" xmlns="http://www.w3.org/2000/svg"
 width="158.000000pt" height="158.000000pt" viewBox="0 0 158.000000 158.000000"
 preserveAspectRatio="xMidYMid meet">
<metadata>
Created by potrace 1.11, written by Peter Selinger 2001-2013
</metadata>
<g transform="translate(0.000000,158.000000) scale(0.100000,-0.100000)"
fill="#000000" stroke="none">
<path d="M744 1549 c-3 -5 27 -9 65 -9 71 0 77 -3 71 -39 -1 -12 1 -13 13 -3
16 13 47 6 47 -10 0 -24 -35 -35 -91 -31 -31 3 -95 0 -141 -6 -152 -20 -281
-84 -392 -195 -39 -38 -74 -69 -79 -68 -4 1 -7 -7 -7 -18 0 -11 -4 -20 -10
-20 -5 0 -10 5 -10 10 0 14 -38 12 -42 -2 -3 -9 -6 -9 -12 0 -4 7 -2 12 4 12
6 0 9 4 5 9 -3 6 3 24 14 41 10 18 21 28 23 23 3 -4 3 -2 2 5 -5 17 24 49 121
137 24 22 30 31 16 23 -14 -7 -47 -35 -75 -63 -28 -27 -54 -48 -59 -47 -4 1
-7 -3 -7 -9 0 -5 -13 -24 -29 -41 -17 -18 -36 -43 -43 -57 -7 -15 -22 -42 -34
-61 -55 -91 -90 -265 -80 -391 21 -253 138 -454 346 -594 79 -53 164 -83 359
-126 150 -33 384 33 548 154 119 88 224 241 269 392 22 75 27 110 28 215 1 78
-4 146 -13 180 -39 154 -120 289 -236 398 -141 131 -286 193 -463 197 -56 1
-105 -2 -108 -6z m173 -25 c-3 -3 -12 -4 -19 -1 -8 3 -5 6 6 6 11 1 17 -2 13
-5z m149 -74 c0 -22 15 -50 26 -50 5 0 7 4 3 9 -3 5 0 13 6 17 8 4 9 3 5 -4
-4 -7 -2 -12 4 -12 6 0 8 -4 5 -10 -3 -5 -1 -10 6 -10 7 0 10 -3 7 -6 -9 -8
-78 23 -78 35 0 6 -5 11 -11 11 -5 0 -8 -4 -5 -9 4 -5 -4 -7 -16 -3 -12 3 -17
7 -10 10 6 2 12 13 12 24 0 14 6 19 23 16 12 -2 22 -10 23 -18z m-111 0 c3 -6
-1 -7 -9 -4 -18 7 -21 14 -7 14 6 0 13 -4 16 -10z m55 0 c0 -5 -10 -10 -22
-10 -19 0 -20 2 -8 10 19 13 30 13 30 0z m-163 -21 l41 -3 -6 -40 c-3 -23 -9
-44 -15 -47 -5 -4 -2 -11 8 -16 26 -15 11 -53 -23 -54 l-27 -2 28 -4 c22 -4
27 -9 27 -34 0 -25 -4 -29 -27 -30 l-28 -2 28 -4 c22 -4 27 -9 27 -34 l0 -31
-72 5 -73 5 3 48 c1 27 5 69 8 94 3 25 2 41 -2 37 -5 -4 -11 -29 -14 -55 -5
-44 -6 -42 -19 51 -12 84 -16 97 -33 97 -28 0 -108 -21 -113 -30 -3 -4 3 -26
13 -49 12 -29 21 -39 32 -35 34 14 42 6 75 -70 19 -44 35 -82 35 -86 0 -4 -29
-19 -65 -35 -36 -15 -65 -30 -65 -34 1 -10 48 -61 57 -61 28 1 33 17 18 53
-18 44 -2 50 20 7 9 -16 23 -30 33 -30 10 -1 2 -8 -18 -18 -65 -33 -91 -55
-110 -93 -11 -20 -25 -39 -32 -42 -14 -4 -67 12 -121 37 -84 40 -232 95 -239
88 -3 -4 -14 -32 -22 -62 -13 -44 -15 -47 -10 -15 9 61 61 179 108 243 44 59
112 121 181 164 59 37 189 79 264 85 36 3 68 7 70 9 2 2 7 2 11 -1 3 -2 25 -5
47 -6z m333 -36 c0 -7 -2 -13 -4 -13 -2 0 -12 -3 -20 -6 -13 -5 -16 0 -14 24
2 26 4 28 20 18 10 -6 18 -16 18 -23z m-220 17 c20 -6 21 -8 5 -8 -11 0 -31 4
-45 8 -20 6 -21 8 -5 8 11 0 31 -4 45 -8z m129 -52 c117 -58 212 -153 269
-269 22 -46 43 -97 47 -114 l5 -30 -12 32 c-7 17 -15 34 -19 37 -3 3 -76 -24
-164 -59 -87 -36 -160 -65 -162 -65 -2 0 -8 -10 -13 -22 -9 -23 -9 -23 -9 -2
-1 12 -8 24 -16 28 -8 3 -14 9 -13 14 5 13 -44 66 -84 91 -21 12 -38 24 -38
26 0 2 4 15 9 28 13 34 47 44 72 21 10 -9 19 -13 19 -7 0 5 -18 19 -40 32 -22
12 -40 24 -40 27 0 3 20 39 43 82 42 74 55 101 54 112 0 3 5 16 13 29 11 21
10 26 -6 38 -34 24 0 13 85 -29z m195 -27 c3 -5 -1 -15 -10 -22 -14 -11 -18
-11 -28 2 -6 9 -18 14 -26 12 -11 -3 -11 -2 -3 4 17 12 61 15 67 4z m41 -31
c3 -5 1 -10 -4 -10 -6 0 -11 5 -11 10 0 6 2 10 4 10 3 0 8 -4 11 -10z m-39
-15 c-3 -9 0 -15 9 -15 8 0 15 -5 15 -11 0 -6 15 -9 37 -7 26 2 38 -2 40 -12
4 -13 3 -13 -6 0 -9 12 -11 11 -11 -7 0 -15 -6 -23 -17 -24 -11 0 -13 -3 -5
-6 6 -2 10 -9 7 -13 -7 -12 -45 20 -45 38 0 7 -4 11 -9 8 -5 -3 -11 4 -14 15
-3 13 -10 18 -17 14 -7 -4 -7 1 2 14 15 24 23 28 14 6z m64 -15 c0 -5 -4 -10
-10 -10 -5 0 -10 5 -10 10 0 6 5 10 10 10 6 0 10 -4 10 -10z m-1148 -152 c-8
-8 -12 -9 -12 -1 0 6 -3 20 -6 30 -7 17 -6 17 12 1 14 -14 16 -20 6 -30z m-20
-2 c4 -21 2 -23 -16 -16 -28 10 -34 40 -8 40 13 0 21 -8 24 -24z m1253 4 c0
-22 -29 -18 -33 3 -3 14 1 18 15 15 10 -2 18 -10 18 -18z m-670 -40 c12 -54
55 -33 46 23 0 4 6 7 14 7 10 0 15 -10 15 -34 0 -25 5 -36 18 -39 9 -2 -3 -3
-28 -1 -25 2 -55 3 -67 3 -20 1 -23 6 -23 42 0 45 15 45 25 -1z m-635 -75 c0
-8 -9 -15 -20 -15 -11 0 -20 7 -20 15 0 8 9 15 20 15 11 0 20 -7 20 -15z m657
9 c-3 -3 -12 -4 -19 -1 -8 3 -5 6 6 6 11 1 17 -2 13 -5z m703 -9 c0 -8 -9 -15
-20 -15 -20 0 -26 11 -13 23 12 13 33 7 33 -8z m-790 -10 c0 -2 -10 -9 -22
-15 -22 -11 -22 -10 -4 4 21 17 26 19 26 11z m151 -10 c169 -60 186 -288 29
-373 -36 -19 -56 -23 -103 -20 -108 8 -182 88 -182 198 0 103 58 176 160 201
45 11 49 10 96 -6z m44 5 c3 -6 -1 -7 -9 -4 -18 7 -21 14 -7 14 6 0 13 -4 16
-10z m536 -199 c0 -51 -1 -94 -3 -96 -7 -5 -78 8 -74 14 2 3 -13 5 -35 3 -28
-3 -39 0 -39 9 -1 9 -6 7 -15 -5 -8 -11 -15 -29 -14 -40 0 -18 2 -17 10 5 8
21 15 25 34 21 29 -5 29 -5 10 -68 -17 -55 -17 -60 -9 -52 3 4 22 0 41 -8 40
-17 43 -15 61 29 l12 32 -6 -30 c-9 -51 -72 -170 -119 -229 -79 -96 -248 -199
-349 -211 -37 -5 -35 -4 14 10 30 9 58 19 63 24 4 4 1 24 -8 43 -12 31 -12 37
0 41 9 4 18 -5 25 -29 6 -18 15 -34 20 -34 10 0 80 40 80 46 0 9 -58 32 -75
31 -15 -2 -19 3 -17 18 4 18 2 18 -15 -3 -22 -28 -86 -40 -109 -21 -9 7 -28
37 -41 67 -28 57 -41 63 -24 10 6 -18 15 -64 21 -103 5 -38 12 -80 15 -91 4
-19 -1 -22 -45 -27 -28 -3 -72 -3 -100 0 -48 5 -49 7 -44 32 4 14 11 30 15 36
5 5 9 44 9 87 0 63 -3 78 -15 78 -10 0 -15 11 -15 35 0 31 3 35 25 35 25 0 30
15 28 78 -1 15 41 27 63 18 18 -7 101 21 121 40 7 7 23 21 35 31 13 10 32 34
42 54 l19 36 38 -18 c20 -10 39 -24 42 -31 3 -7 11 9 18 36 8 27 19 51 26 53
7 3 68 -2 135 -11 68 -9 127 -16 131 -16 4 0 7 32 7 70 l0 71 -52 -6 c-29 -4
-74 -11 -100 -17 -52 -11 -68 -6 -68 22 0 24 29 34 49 16 13 -11 29 -12 91 -2
75 11 75 11 73 41 l-2 30 9 -30 c6 -16 10 -72 11 -124z m-1331 90 c0 -14 -18
-23 -30 -16 -6 4 -8 11 -5 16 8 12 35 12 35 0z m152 -9 c52 -7 68 -5 72 5 9
21 36 15 47 -11 7 -14 17 -22 24 -20 13 5 135 -12 143 -21 3 -3 5 -22 4 -44
-2 -38 31 -115 66 -155 17 -18 83 -65 112 -78 12 -5 12 -7 -2 -7 -24 -1 -56
-71 -50 -110 4 -26 -2 -37 -32 -66 -20 -18 -36 -43 -36 -54 0 -11 -6 -24 -13
-28 -6 -4 -13 -17 -14 -28 -1 -11 -3 -29 -5 -39 -2 -16 8 -23 52 -37 30 -10
48 -18 39 -18 -8 -1 -48 10 -89 25 -127 44 -231 123 -303 228 -42 62 -97 180
-96 206 0 8 6 -1 13 -20 15 -40 21 -40 92 -12 l52 21 -6 -21 c-5 -19 -2 -20
34 -14 21 4 51 14 66 22 35 18 58 18 86 -2 12 -8 22 -13 22 -10 0 13 -56 40
-84 41 -24 0 -32 5 -34 23 -2 12 -7 22 -11 22 -4 0 -6 -13 -3 -29 3 -23 0 -29
-19 -34 -30 -8 -39 -1 -39 30 0 23 -3 25 -34 19 -32 -6 -35 -4 -41 23 -6 27
-9 29 -43 24 -58 -8 -60 -9 -54 -40 2 -15 2 -26 -1 -23 -16 14 -25 189 -12
228 3 12 11 19 18 16 7 -2 42 -8 79 -12z m1259 3 c-1 -15 -24 -12 -29 3 -3 9
2 13 12 10 10 -1 17 -7 17 -13z m-321 -35 c0 -5 -12 -11 -27 -12 -16 0 -32 -2
-38 -3 -5 -2 -25 -3 -43 -4 -30 -1 -33 -4 -30 -28 3 -24 8 -28 41 -31 52 -4
46 -22 -8 -22 l-45 0 0 49 0 50 43 4 c85 7 107 7 107 -3z m-1097 -85 c8 -18
-11 -31 -25 -17 -11 11 -3 32 12 32 4 0 10 -7 13 -15z m1422 -3 c0 -18 -20
-15 -23 4 -3 10 1 15 10 12 7 -3 13 -10 13 -16z m-98 -104 c-3 -7 -5 -2 -5 12
0 14 2 19 5 13 2 -7 2 -19 0 -25z m-1307 -23 c0 -8 -7 -15 -15 -15 -8 0 -15 7
-15 15 0 8 7 15 15 15 8 0 15 -7 15 -15z m1390 0 c0 -8 -7 -15 -15 -15 -16 0
-20 12 -8 23 11 12 23 8 23 -8z m-1352 -122 c-4 -22 -22 -20 -26 1 -2 10 3 16
13 16 10 0 15 -7 13 -17z m1312 2 c0 -8 -7 -15 -15 -15 -16 0 -20 12 -8 23 11
12 23 8 23 -8z m-1254 -123 c-18 -18 -31 -10 -23 12 4 10 13 13 22 9 15 -5 15
-7 1 -21z m1192 7 c-2 -6 -8 -10 -13 -10 -5 0 -11 4 -13 10 -2 6 4 11 13 11 9
0 15 -5 13 -11z m-1073 -99 c-6 -10 20 -32 28 -24 3 4 33 -12 66 -34 33 -23
71 -44 85 -48 14 -3 26 -10 26 -14 0 -9 126 -39 234 -55 27 -4 43 -11 40 -17
-4 -6 0 -15 7 -20 10 -6 7 -7 -10 -3 -14 5 -21 3 -17 -3 3 -5 -8 -15 -24 -22
-24 -10 -46 -10 -107 0 -42 6 -84 16 -92 20 -38 19 -77 33 -84 31 -5 -1 -11 8
-14 19 -3 11 -10 20 -15 20 -5 0 -6 -5 -2 -11 4 -7 1 -10 -7 -7 -8 3 -13 13
-13 22 1 12 -3 15 -17 11 -12 -4 -21 -1 -25 10 -4 9 -13 14 -20 11 -13 -5 -20
26 -15 58 1 5 -4 6 -12 3 -8 -3 -20 -1 -28 5 -11 8 -10 9 4 4 17 -5 24 8 8 18
-5 3 -11 17 -13 31 -4 20 -3 23 8 14 8 -6 12 -15 9 -19z m-35 0 c0 -11 -6 -20
-13 -20 -19 0 -27 10 -20 26 8 21 33 17 33 -6z m1030 -6 c0 -17 -22 -14 -28 4
-2 7 3 12 12 12 9 0 16 -7 16 -16z m-259 -12 c-7 -2 -18 1 -23 6 -8 8 -4 9 13
5 13 -4 18 -8 10 -11z m161 -67 c0 -5 -5 -11 -11 -13 -6 -2 -11 4 -11 13 0 9
5 15 11 13 6 -2 11 -8 11 -13z m-112 -79 c-7 -7 -14 -6 -22 2 -10 10 -10 15 2
22 17 11 34 -10 20 -24z m-115 -27 c10 -15 -1 -23 -20 -15 -9 3 -13 10 -10 16
8 13 22 13 30 -1z m-125 -30 c0 -25 -33 -22 -38 4 -2 12 3 17 17 17 15 0 21
-6 21 -21z"/>
<path d="M732 1379 c3 -39 5 -42 35 -44 25 -2 30 1 26 14 -3 10 -2 12 4 4 4
-6 17 -13 28 -15 17 -2 20 3 23 40 l3 42 -61 0 -61 0 3 -41z"/>
<path d="M508 1356 c-65 -34 -88 -51 -84 -62 3 -7 26 -39 51 -73 26 -34 48
-69 50 -79 1 -9 8 -16 15 -14 7 1 9 -4 6 -16 -4 -12 1 -26 14 -37 18 -16 20
-17 14 -2 -3 9 -10 17 -15 17 -5 0 -9 5 -9 11 0 5 5 7 10 4 14 -9 13 -5 -20
73 -34 81 -35 82 -17 82 7 0 21 6 31 13 18 13 18 15 0 55 -19 41 -19 42 -46
28z"/>
<path d="M347 1232 l-47 -47 35 -28 c20 -15 40 -25 45 -22 5 3 23 -1 39 -10
17 -8 36 -15 43 -15 7 0 -5 9 -28 19 -23 10 -41 26 -41 34 0 9 4 14 8 12 4 -3
14 7 23 20 16 24 16 27 -4 55 -12 17 -22 30 -24 30 -1 0 -23 -21 -49 -48z"/>
<path d="M545 1030 c-16 -17 -16 -20 -3 -15 9 4 19 13 22 21 7 19 2 18 -19 -6z"/>
<path d="M490 1006 c0 -2 7 -6 15 -10 8 -3 15 -1 15 4 0 6 -7 10 -15 10 -8 0
-15 -2 -15 -4z"/>
<path d="M1174 1268 c-4 -7 -14 -23 -21 -35 -13 -19 -12 -21 4 -18 10 2 18 4
18 5 0 5 45 6 46 1 9 -43 6 -66 -9 -77 -9 -8 -14 -14 -11 -14 3 0 22 13 42 28
l36 29 -48 47 c-36 36 -51 45 -57 34z"/>
<path d="M1054 1186 c24 -19 32 -20 42 -4 4 7 3 8 -4 4 -6 -4 -22 -2 -34 4
-22 11 -22 10 -4 -4z"/>
<path d="M1274 1135 c-18 -14 -18 -15 0 -8 13 4 17 2 14 -8 -3 -8 -1 -25 4
-38 6 -17 4 -31 -7 -47 -14 -22 -14 -23 2 -18 49 16 73 27 73 35 0 11 -53 99
-61 99 -3 0 -14 -7 -25 -15z"/>
<path d="M1016 1125 c10 -8 24 -14 29 -14 6 0 1 6 -9 14 -11 8 -24 15 -30 15
-5 0 -1 -7 10 -15z"/>
<path d="M1165 1053 c-22 -19 -31 -30 -20 -24 27 14 69 51 64 55 -2 2 -22 -12
-44 -31z"/>
<path d="M1030 1031 c0 -6 4 -13 10 -16 6 -3 7 1 4 9 -7 18 -14 21 -14 7z"/>
<path d="M1055 983 c4 -30 17 -53 30 -53 26 0 24 17 -4 44 -22 21 -27 23 -26
9z"/>
<path d="M1023 942 c-19 -12 2 -36 23 -27 18 8 18 8 1 12 -9 3 -15 9 -12 14 7
11 4 11 -12 1z"/>
<path d="M866 909 c-19 -19 -19 -19 6 -19 13 0 27 -2 30 -5 11 -11 -5 -54 -21
-58 -14 -4 -14 -5 2 -6 9 0 17 -4 18 -8 0 -5 2 -15 4 -25 2 -9 -5 -18 -16 -21
-14 -4 -19 -14 -19 -36 0 -28 -3 -31 -30 -31 l-30 0 0 88 c-1 79 -2 85 -15 68
-8 -11 -15 -15 -15 -10 0 5 -15 11 -32 12 -18 2 -42 12 -53 23 l-20 20 20 -6
c20 -7 20 -6 0 9 -26 22 -36 17 -62 -30 -67 -118 17 -267 150 -267 69 0 118
22 153 69 26 34 29 45 29 112 0 52 -4 77 -13 80 -6 2 -10 7 -7 12 6 9 -14 27
-35 32 -8 2 -17 6 -20 9 -3 3 -14 -2 -24 -12z m-81 -92 c53 -75 -42 -159 -104
-93 -34 36 -23 92 21 110 37 16 64 10 83 -17z"/>
<path d="M725 770 c2 -31 15 -37 15 -7 0 15 -4 27 -8 27 -5 0 -8 -9 -7 -20z"/>
<path d="M1188 715 c-3 -14 -2 -25 2 -25 4 0 10 11 12 25 3 14 2 25 -2 25 -4
0 -10 -11 -12 -25z"/>
<path d="M920 554 c-9 -10 -10 -18 -3 -25 8 -8 14 -5 22 9 13 25 -2 38 -19 16z"/>
<path d="M1028 553 c-18 -21 -31 -43 -25 -43 2 0 13 14 25 30 25 33 24 41 0
13z"/>
<path d="M858 543 c-14 -3 -18 -15 -18 -49 0 -24 -4 -44 -10 -44 -5 0 -10 11
-10 24 0 37 -10 56 -31 56 -18 0 -24 -13 -31 -65 -2 -16 4 -21 32 -23 19 -2
38 -9 42 -15 5 -8 8 -7 8 4 0 11 12 19 35 23 19 4 35 11 35 15 0 10 -29 82
-33 80 -1 -1 -10 -3 -19 -6z"/>
<path d="M930 489 c0 -11 21 -11 39 0 9 6 5 9 -13 9 -14 0 -26 -4 -26 -9z"/>
<path d="M996 487 c3 -10 9 -15 12 -12 3 3 0 11 -7 18 -10 9 -11 8 -5 -6z"/>
<path d="M1040 456 c0 -2 8 -10 18 -17 15 -13 16 -12 3 4 -13 16 -21 21 -21
13z"/>
<path d="M1120 450 c8 -5 20 -10 25 -10 6 0 3 5 -5 10 -8 5 -19 10 -25 10 -5
0 -3 -5 5 -10z"/>
<path d="M1197 435 c-9 -7 -17 -16 -17 -21 0 -4 5 -3 12 4 7 7 19 12 27 12 11
0 10 -4 -5 -16 -10 -8 -14 -13 -7 -10 6 4 14 2 18 -4 3 -6 -1 -13 -10 -16 -11
-4 -14 -13 -9 -27 7 -21 6 -21 -22 -2 -28 18 -29 18 -14 0 14 -17 13 -18 -4
-11 -20 7 -20 7 -1 -16 11 -13 20 -24 20 -25 1 -2 22 19 48 45 l47 47 -33 26
c-28 22 -36 25 -50 14z m37 -76 c-3 -5 -10 -7 -15 -3 -5 3 -7 10 -3 15 3 5 10
7 15 3 5 -3 7 -10 3 -15z"/>
<path d="M785 315 c-7 -60 -9 -65 -31 -65 -14 0 -24 -6 -24 -14 0 -7 -3 -28
-6 -45 l-6 -31 72 0 72 0 -6 28 c-3 15 -8 52 -11 82 -10 95 -15 110 -35 110
-15 0 -20 -11 -25 -65z"/>
<path d="M1116 303 c-5 -6 18 -33 28 -33 3 0 6 6 6 14 0 15 -24 28 -34 19z"/>
<path d="M160 791 c0 -39 1 -71 3 -71 1 0 56 7 122 16 66 9 147 19 180 22 48
6 61 11 63 26 2 10 -2 22 -8 26 -14 9 -136 25 -162 21 -9 -1 -34 2 -55 8 -21
5 -62 12 -90 16 l-53 7 0 -71z"/>
<path d="M450 737 c0 -22 23 -97 30 -97 5 0 16 -3 26 -7 12 -5 15 -3 9 6 -6
10 0 12 24 6 26 -6 30 -4 25 10 -4 9 -13 14 -21 11 -65 -25 -91 -7 -28 20 29
12 33 17 26 35 -6 17 -16 22 -49 23 -23 0 -42 -3 -42 -7z"/>
<path d="M250 549 c-13 -6 -26 -12 -28 -14 -2 -2 10 -29 28 -60 26 -45 35 -54
46 -44 17 14 18 23 2 13 -10 -5 -10 -4 -2 5 15 17 6 61 -12 54 -18 -7 -18 5 1
24 8 8 13 19 10 24 -7 11 -13 11 -45 -2z"/>
<path d="M436 524 c-15 -14 -26 -27 -24 -29 2 -3 20 9 39 25 19 16 30 29 24
29 -5 0 -23 -11 -39 -25z"/>
<path d="M331 497 c-15 -37 -14 -48 3 -41 27 10 26 -15 -3 -38 l-28 -24 46
-47 47 -47 20 27 c11 16 24 35 29 43 8 13 7 13 -8 1 -10 -8 -20 -11 -24 -8 -3
4 -12 2 -18 -3 -9 -7 -20 -4 -36 10 -14 11 -18 19 -11 20 8 0 10 5 5 13 -4 6
5 4 19 -5 26 -17 27 -17 23 3 -4 17 0 20 16 16 26 -7 66 10 74 31 5 14 4 14
-12 0 -45 -40 -109 -18 -123 44 l-7 33 -12 -28z m56 -84 c0 -9 -4 -10 -14 -2
-7 6 -13 12 -13 14 0 1 6 2 13 2 8 0 14 -6 14 -14z"/>
<path d="M753 80 c1 -11 5 -20 9 -20 3 0 6 9 5 20 -1 11 -5 20 -9 20 -3 0 -6
-9 -5 -20z"/>
<path d="M698 1543 c7 -3 16 -2 19 1 4 3 -2 6 -13 5 -11 0 -14 -3 -6 -6z"/>
<path d="M648 1533 c7 -3 16 -2 19 1 4 3 -2 6 -13 5 -11 0 -14 -3 -6 -6z"/>
<path d="M598 1523 c7 -3 16 -2 19 1 4 3 -2 6 -13 5 -11 0 -14 -3 -6 -6z"/>
<path d="M182 1197 c-8 -10 -6 -13 9 -13 20 0 25 11 10 20 -5 3 -13 0 -19 -7z"/>
</g>
</svg>
